/* XPM */
static char * black_close_icon_xpm[] = {
"12 12 52 1",
" 	c #000000",
".	c #424242",
"+	c #777777",
"@	c #616161",
"#	c #505050",
"$	c #6C6C6C",
"%	c #474747",
"&	c #7E7E7E",
"*	c #FDFDFD",
"=	c #D3D3D3",
"-	c #444444",
";	c #545454",
">	c #D2D2D2",
",	c #FFFFFF",
"'	c #858585",
")	c #686868",
"!	c #D4D4D4",
"~	c #FCFCFC",
"{	c #F2F2F2",
"]	c #4B4B4B",
"^	c #D1D1D1",
"/	c #FEFEFE",
"(	c #D8D8D8",
"_	c #646464",
":	c #555555",
"<	c #D7D7D7",
"[	c #FAFAFA",
"}	c #F5F5F5",
"|	c #F6F6F6",
"1	c #606060",
"2	c #535353",
"3	c #656565",
"4	c #525252",
"5	c #F8F8F8",
"6	c #ECECEC",
"7	c #565656",
"8	c #5F5F5F",
"9	c #CACACA",
"0	c #F4F4F4",
"a	c #E1E1E1",
"b	c #5D5D5D",
"c	c #878787",
"d	c #E4E4E4",
"e	c #D9D9D9",
"f	c #8C8C8C",
"g	c #3D3D3D",
"h	c #969696",
"i	c #6B6B6B",
"j	c #131313",
"k	c #5C5C5C",
"l	c #818181",
"m	c #414141",
"            ",
" .+@   #$%  ",
" &*=- ;>,'  ",
" )!~{]^/(_  ",
"  :<[,}|1   ",
"   2,},3    ",
"  4(5,6(7   ",
" 8950:a,(b  ",
" c,d3 ]e,f  ",
" ghi  jklm  ",
"    j       ",
"            "};
