/* XPM */
static char * check_yes_xpm[] = {
"16 15 43 1",
" 	c None",
".	c #859D7D",
"+	c #889A80",
"@	c #000800",
"#	c #7C7C7C",
"$	c #7D7B7C",
"%	c #7A7C77",
"&	c #80A176",
"*	c #19380F",
"=	c #000900",
"-	c #788075",
";	c #A4A6A3",
">	c #BBBBBB",
",	c #BBBBB9",
"'	c #BBBCB7",
")	c #BAC2B3",
"!	c #7C9376",
"~	c #819F79",
"{	c #18370E",
"]	c #000D00",
"^	c #7C9474",
"/	c #B7BFB4",
"(	c #597A4F",
"_	c #18390E",
":	c #000A00",
"<	c #86A07D",
"[	c #5C7850",
"}	c #ADBFA5",
"|	c #849E79",
"1	c #19380E",
"2	c #000E00",
"3	c #1C3515",
"4	c #698A5D",
"5	c #E4F9DA",
"6	c #7EA370",
"7	c #DFFED4",
"8	c #839F77",
"9	c #788073",
"0	c #1B3613",
"a	c #80A174",
"b	c #000B00",
"c	c #1C3714",
"d	c #000600",
"                ",
"                ",
"            .+@ ",
"   ####$%  &*=  ",
"  -;>>,')!~{]   ",
"  ^/     (_:    ",
" <[}    |12     ",
" =34  5&*:      ",
"  :_678_]9      ",
"  -:0a1b        ",
"   -:c]         ",
"     d          ",
"                ",
"                ",
"                "};
