/* XPM */
static char * check_no_xpm[] = {
"16 15 8 1",
" 	c None",
".	c None",
"+	c #000000",
"@	c #494949",
"#	c #727272",
"$	c #7A7A7A",
"%	c #FEFEFE",
"&	c #898989",
"................",
"................",
".....++++++.....",
"....+@####$+....",
"....+#.....+....",
"....+#.....+....",
"....+#.....+....",
"....+#.....+....",
"....+&.....+....",
".....++++++.....",
"................",
"................",
"................",
"................",
"................"};
