/* XPM */
static char * downloading_image_xpm[] = {
"60 91 266 2",
"  	c None",
". 	c #FFFFFF",
"+ 	c #E7E7E7",
"@ 	c #CECBCE",
"# 	c #8C8A8C",
"$ 	c #4A4D4A",
"% 	c #A5A2A5",
"& 	c #C6C7C6",
"* 	c #F7F7F7",
"= 	c #E7E3E7",
"- 	c #313431",
"; 	c #212831",
"> 	c #182429",
", 	c #101010",
"' 	c #5A595A",
") 	c #DEDFDE",
"! 	c #B5B2B5",
"~ 	c #081010",
"{ 	c #314952",
"] 	c #212C39",
"^ 	c #290000",
"/ 	c #420400",
"( 	c #181818",
"_ 	c #7B7D7B",
": 	c #DEDBDE",
"< 	c #EFEBEF",
"[ 	c #182029",
"} 	c #42556B",
"| 	c #101410",
"1 	c #8C4D52",
"2 	c #CE3031",
"3 	c #A51010",
"4 	c #4A0400",
"5 	c #210000",
"6 	c #080400",
"7 	c #080808",
"8 	c #292C29",
"9 	c #737573",
"0 	c #CECFCE",
"a 	c #292829",
"b 	c #314552",
"c 	c #293C4A",
"d 	c #313031",
"e 	c #F7D7D6",
"f 	c #EFAAAD",
"g 	c #D66563",
"h 	c #A51818",
"i 	c #6B0000",
"j 	c #420000",
"k 	c #100000",
"l 	c #4A494A",
"m 	c #D6D7D6",
"n 	c #848684",
"o 	c #182021",
"p 	c #425D73",
"q 	c #101821",
"r 	c #EFEFEF",
"s 	c #EFCFCE",
"t 	c #DE696B",
"u 	c #C62C29",
"v 	c #390C10",
"w 	c #213039",
"x 	c #F7F3F7",
"y 	c #393C39",
"z 	c #395163",
"A 	c #101418",
"B 	c #E7EBEF",
"C 	c #CEB6B5",
"D 	c #181C21",
"E 	c #4A5D73",
"F 	c #42454A",
"G 	c #6B7173",
"H 	c #A5A6A5",
"I 	c #BDBEBD",
"J 	c #848284",
"K 	c #101818",
"L 	c #63696B",
"M 	c #293842",
"N 	c #292C31",
"O 	c #212829",
"P 	c #848A8C",
"Q 	c #C6C3C6",
"R 	c #424142",
"S 	c #101C21",
"T 	c #000808",
"U 	c #BDBABD",
"V 	c #313439",
"W 	c #425D6B",
"X 	c #212C31",
"Y 	c #212421",
"Z 	c #181C18",
"` 	c #7B797B",
" .	c #31414A",
"..	c #525552",
"+.	c #6B696B",
"@.	c #42596B",
"#.	c #4A6173",
"$.	c #394D5A",
"%.	c #636563",
"&.	c #FFFBFF",
"*.	c #182831",
"=.	c #393839",
"-.	c #212021",
";.	c #D6D3D6",
">.	c #293031",
",.	c #313C4A",
"'.	c #ADAEAD",
").	c #525152",
"!.	c #080C08",
"~.	c #5A5D5A",
"{.	c #526984",
"].	c #393C42",
"^.	c #4A697B",
"/.	c #9C9E9C",
"(.	c #ADAAAD",
"_.	c #636163",
":.	c #9C9A9C",
"<.	c #BDB6B5",
"[.	c #181410",
"}.	c #210808",
"|.	c #310808",
"1.	c #311410",
"2.	c #393031",
"3.	c #5A5552",
"4.	c #AD6563",
"5.	c #BD2829",
"6.	c #7B0000",
"7.	c #520000",
"8.	c #100400",
"9.	c #6B6D6B",
"0.	c #949694",
"a.	c #EFF3F7",
"b.	c #EFE7E7",
"c.	c #EFD3D6",
"d.	c #EF9A9C",
"e.	c #CE5D5A",
"f.	c #6B0C10",
"g.	c #311818",
"h.	c #424542",
"i.	c #4A5152",
"j.	c #6B6163",
"k.	c #313842",
"l.	c #293442",
"m.	c #7B8284",
"n.	c #212429",
"o.	c #293439",
"p.	c #5A5D63",
"q.	c #4A515A",
"r.	c #425563",
"s.	c #737173",
"t.	c #4A4D52",
"u.	c #39495A",
"v.	c #425163",
"w.	c #000000",
"x.	c #B5B6B5",
"y.	c #8C8E8C",
"z.	c #000400",
"A.	c #100C08",
"B.	c #312829",
"C.	c #393431",
"D.	c #292821",
"E.	c #948A84",
"F.	c #6B6963",
"G.	c #423C39",
"H.	c #424139",
"I.	c #292421",
"J.	c #292021",
"K.	c #312821",
"L.	c #312C29",
"M.	c #73716B",
"N.	c #7B7573",
"O.	c #949294",
"P.	c #524542",
"Q.	c #393029",
"R.	c #080C10",
"S.	c #520808",
"T.	c #390000",
"U.	c #635D5A",
"V.	c #C6B6AD",
"W.	c #B5AAA5",
"X.	c #9C928C",
"Y.	c #847973",
"Z.	c #63615A",
"`.	c #211C18",
" +	c #423431",
".+	c #4A3C39",
"++	c #524942",
"@+	c #102429",
"#+	c #8C2421",
"$+	c #BD1C18",
"%+	c #C62421",
"&+	c #C63431",
"*+	c #942C29",
"=+	c #291C21",
"-+	c #52514A",
";+	c #BDB2AD",
">+	c #B5AEA5",
",+	c #9C8E8C",
"'+	c #4A4542",
")+	c #423831",
"!+	c #213442",
"~+	c #5A6163",
"{+	c #F7FBFF",
"]+	c #C6B6B5",
"^+	c #A59A94",
"/+	c #ADA69C",
"(+	c #ADA29C",
"_+	c #736D6B",
":+	c #182C39",
"<+	c #21384A",
"[+	c #9C968C",
"}+	c #948E84",
"|+	c #313029",
"1+	c #635952",
"2+	c #BDAEAD",
"3+	c #183042",
"4+	c #394142",
"5+	c #A59694",
"6+	c #4A4942",
"7+	c #6B5D5A",
"8+	c #847573",
"9+	c #7B716B",
"0+	c #524D4A",
"a+	c #081018",
"b+	c #213042",
"c+	c #6B6563",
"d+	c #736D63",
"e+	c #A59E94",
"f+	c #736963",
"g+	c #294152",
"h+	c #84716B",
"i+	c #736563",
"j+	c #AD9E9C",
"k+	c #182431",
"l+	c #181418",
"m+	c #635552",
"n+	c #63595A",
"o+	c #000408",
"p+	c #52494A",
"q+	c #84756B",
"r+	c #212018",
"s+	c #5A5152",
"t+	c #5A4D4A",
"u+	c #A59E9C",
"v+	c #393831",
"w+	c #211818",
"x+	c #5A514A",
"y+	c #9C9694",
"z+	c #524539",
"A+	c #4A4142",
"B+	c #7B6D6B",
"C+	c #6B5952",
"D+	c #7B6963",
"E+	c #6B5D52",
"F+	c #B5A6A5",
"G+	c #BDB6AD",
"H+	c #181810",
"I+	c #6B615A",
"J+	c #4A4539",
"K+	c #948684",
"L+	c #8C7D7B",
"M+	c #4A4139",
"N+	c #94867B",
"O+	c #8C827B",
"P+	c #080800",
"Q+	c #8C867B",
". . . . . . . . . . . . . . . . . . . . . . . . . . . . . . . . . . . . . . . . . . . . . . . . . . . . . . . . . . . . ",
". . . . . . . . . . . . . . . . . . . . . . . . . . . . . . . . . . . . . . . . . . . . . . . . . . . . . . . . . . . . ",
". . . . . . . . . . . . . . . . . . . . . . . . . . . . . . . . . . . . . . . . . . . . . . . . . . . . . . . . . . . . ",
". . . . . . . . . . . . . . . . . . . . . . . . . . . . . . . . . . . . . . . . . . . . . . . . . . . . . . . . . . . . ",
". . . . . . . . . . . . . . . . . . . . . . . . . . . . . . . . . . . . . . . . . . . . . . . . . . . . . . . . . . . . ",
". . . . . . . . . . . . . . . . . . . . . . . . . . . . . . . . . . . . . . . . . . . . . . . . . . . . . . . . . . . . ",
". . . . . . . . . . . . . . . . . . . . . . . . . . . . . . . . . . . . . . . . . . . . . . . . . . . . . . . . . . . . ",
". . . . . . . . . . . . . . . . . . . . . . . . . . . . . . . . . . . . . . . . . . . . . . . . . . . . . . . . . . . . ",
". . . . . . . . . . . . . . . . . . . . . . . . . . . . . . . . . . . . . . . . . . . . . . . . . . . . . . . . . . . . ",
". . . . . . . . . . . . . . . . . . . . . . . . . . . . . . . . . . . . . . . . . . . . . . . . . . . . . . . . . . . . ",
". . . . . . . . . . . . . . . . . . . . . . . . . . . . . . . . . . . . . . . . . . . . . . . . . . . . . . . . . . . . ",
". . . . . . . . . . . . . . . . . . . . . . . . + @ . . . . . . . . . . . . . . . . . . . . . . . . . . . . . . . . . . ",
". . . . . . . . . . . . . . . . . . . . . . . . # $ % & * . . . . . . . . . . . . . . . . . . . . . . . . . . . . . . . ",
". . . . . . . . . . . . . . . . . . . . . . . = - ; > , ' % ) * . . . . . . . . . . . . . . . . . . . . . . . . . . . . ",
". . . . . . . . . . . . . . . . . . . . . . . ! ~ { ] ^ / ( $ _ ! : . . . . . . . . . . . . . . . . . . . . . . . . . . ",
". . . . . . . . . . . . . . . . . . . . . . < ' [ } | 1 2 3 4 5 6 7 8 9 0 * . . . . . . . . . . . . . . . . . . . . . . ",
". . . . . . . . . . . . . . . . . . . . . . @ a b c d @ e f g h i j k 7 l m . . . . . . . . . . . . . . . . . . . . . . ",
". . . . . . . . . . . . . . . . . . . . . . n o p q n r + < r s t u v w a @ . . . . . . . . . . . . . . . . . . . . . . ",
". . . . . . . . . . . . . . . . . . . . . x y c z A 0 x < < B + < C D ] l = . . . . . . . . . . . . . . . . . . . . . . ",
". . . . . . . . . . . . . . . . . . . . . ! > E b > F G H I m + x J K ~ J * . . . . . . . . . . . . . . . . . . . . . . ",
". . . . . . . . . . . . . . . . . . . . r L M z A M b M N O l P Q R S T I . . . . . . . . . . . . . . . . . . . . . . . ",
". . . . . . . . . . . . . . . . . . . . U V W X Y d Z , A o w w O ; [ a * . . . . . . . . . . . . . . . . . . . . . . . ",
". . . . . . . . . . . . . . . . . . . . `  .} ~ J ..# _ +.$ o @.#.$.K %.. . . . . . . . . . . . . . . . . . . . . . . . ",
". . . . . . . . . . . . . . . . . . . &.y [ *.=._ -.I ;.;.I >.#.#.,.-.'.. . . . . . . . . . . . . . . . . . . . . . . . ",
". . . . . . . . . . . . . . . . . . . . ! ).!.Y 8 ~.m ;.;._ c {.$.[ R : . . . . . . . . . . . . . . . . . . . . . . . . ",
". . . . . . . . . . . . . . . . . . . . . x I ` - a %.H I ].#.^.X | /.* . . . . . . . . . . . . . . . . . . . . . . . . ",
". . . . . . . . . . . . . . . . . . . . . . . * : (.' =.d > p #.O J x . . . . . . . . . . . . . . . . . . . . . . . . . ",
". . . . . . . . . . . . . . . . . . . . . . . . . . * m n =.D [ F m . . . . . . . . . . . . . . . . . . . . . . . . . . ",
". . . . . . . . . . . . . . . . . . . . . . . . . . . . x @ _.Z :.* . . . . . . . . . . . . . . . . . . . . . . . . . . ",
". . . . . . . . . . . . . . . . . . . . . . . . . . . . . . . < &.. . . . . . . . . . . . . . . . . . . . . . . . . . . ",
". . . . . . . . . . . . . . . . . . . . . . . . . . . . . . . . . . . . . . . . . . . . . . . . . . . . . . . . . . . . ",
". . . . . . . . . . . . . . . . . . . . . . . . . . . . . . . . . . . . . . . . . . . . . . . . . . . . . . . . . . . . ",
". . . . . . . . . . . . . . . . . . . . . . . . . . * + @ <.! 0 + * . . . . . . . . . . . . . . . . . . . . . . . . . . ",
". . . . . . . . . . . . . . . . . . . . . . . . < '.' 8 [.}.|.1.2.l _.J U = . . . . . . . . . . . . . . . . . . . . . . ",
". . . . . . . . . . . . . . . . . . . . . . * @ ' K 7 , 3.4.5.3 6.7.^ 8.| l 0 . . . . . . . . . . . . . . . . . . . . . ",
". . . . . . . . . . . . . . . . . . . . &.: 9.-.K [ V 0.+ a.b.c.d.e.f.g.[ 7 :.. . . . . . . . . . . . . . . . . . . . . ",
". . . . . . . . . . . . . . . . . . . r :.h.> X  .$. .i.~./.= < m j.k.l.!., Q . . . . . . . . . . . . . . . . . . . . . ",
". . . . . . . . . . . . . . . . &.@ m.R *.w o | ( n.o.l.w [ V p.q.b X T y H &.. . . . . . . . . . . . . . . . . . . . . ",
". . . . . . . . . . . . . . . . * ` [  .r.X $ ' a ~.s.t.- > b u.v.w !.l @ * . . . . . . . . . . . . . . . . . . . . . . ",
". . . . . . . . . . . . . . . . . I Z 7 7 ( =.| d (.@ ;.# o @.W D !.J < . . . . . . . . . . . . . . . . . . . . . . . . ",
". . . . . . . . . . . . . . . . . * (.+.d | w.w.| y n :.O { z S T ' < . . . . . . . . . . . . . . . . . . . . . . . . . ",
". . . . . . . . . . . . . . . . . . . &.+ m x.y.).Z z.z.!.w !.z.+.= . . . . . . . . . . . . . . . . . . . . . . . . . . ",
". . . . . . . . . . . . . . . . . . . . . . . &.< I +.a 7 z.!.%.= . . . . . . . . . . . . . . . . . . . . . . . . . . . ",
". . . . . . . . . . . . . . . . . . . . . . . . . . &.) (.J /.r . . . . . . . . . . . . . . . . . . . . . . . . . . . . ",
". . . . . . . . . . . . . . . . . . . . . . . . . . . . &.* &.. . . . . . . . . . . . . . . . . . . . . . . . . . . . . ",
". . . . . . . . . . . . . . . . . . . . . . . . . . . . . . . . . . . . . . . . . . . . . . . . . . . . . . . . . . . . ",
". . . . . . . . . . . . . . . . . . . . . . . . . . . . . . . . . . . . . . . . . . . . . . . . . . . . . . . . . . . . ",
". . . . . . . . . . . . . . . . . . . . . . . . . . &.< @ (.% 0 r &.. . . . . . . . . . . . . . . . . . . . . . . . . . ",
". . . . . . . . . . . . . . . . . . . . . . . . * ;.0._.a , A.y 9.(.= * . . . . . . . . . . . . . . . . . . . . . . . . ",
". . . . . . . . . . . . . . . . . . . . &.* ) '...-.A.[.B.C.D.E.F.G.H._.H m x &.. . . . . . . . . . . . . . . . . . . . ",
". . . . . . . . . . . . . . . . . . r m /.s.=.Y I.J.I.K.2.L.( F.M.M.N.N.' ).9.:.@ ) r &.. . . . . . . . . . . . . . . . ",
". . . . . . . . . . . . . . * 0 O.%.G.a I.L.G.P.Q.~ R.5 / S.j 4 T.8.D U.V.W.X.Y.Z.U.Z.:.x . . . . . . . . . . . . . . . ",
". . . . . . . . . . . . * x.9 =.`.I. +.+P.P.++++`.@+O #+$+%+u &+*+=+*.-+V.;+;+;+>+W.,+Z.O.* . . . . . . . . . . . . . . ",
". . . . . . . . . . . . @ =.'+'+C.)+P.++++++++)+R.!+~+= < * {+&._ !+; Y.]+;+;+;+^+F.`., -./.&.. . . . . . . . . . . . . ",
". . . . . . . . . . . . % d /+(+_+C.`.Q.P.++P.K.q :+O.+ < < r r F <+N [+;+;+;+}+|+!.C.1+G.=.m . . . . . . . . . . . . . ",
". . . . . . . . . . . . s.C.2+;+;+2+E.3.Y -.B., 3+4+* &.x x x I *.<+- /+2+5+6+[.2.7+8+8+9+G.l 0 . . . . . . . . . . . . ",
". . . . . . . . . . . &.).0+;+;+;+;+;+2+5+N.G.( a+F /.0.y.O.O.%.b+:+1+(+c+L.|+1+9+8+8+8+8+d+a ' < . . . . . . . . . . . ",
". . . . . . . . . . . * H.M.;+;+;+;+;+;+;+;+2+e+f+L.z.w.a+q S *.g+S G.|+C.1+h+8+8+8+8+8+8+8+i+a 9.) . . . . . . . . . . ",
". . . . . . . . . . . x R E.;+;+;+;+;+;+;+;+;+;+;+j+c+|+R.a+!+g+k+l+G.1+9+8+8+8+8+8+8+8+8+8+8+m+( 0.. . . . . . . . . . ",
". . . . . . . . . . . ) y ^+;+;+;+;+;+;+;+;+;+;+;+;+V.;+E.n+Z o+A.p+8+8+8+8+8+8+8+8+8+8+8+q+m+r+..m . . . . . . . . . . ",
". . . . . . . . . . . 0 Z s+(+;+;+;+;+;+;+;+;+;+;+;+;+;+;+2+f+z.w.A.t+h+8+8+8+8+8+8+8+8+q+m+( $ ;.&.. . . . . . . . . . ",
". . . . . . . . . . . &.:.h.( C.9+u+;+;+;+;+;+;+;+;+;+;+;+2+v+!.7 [.7 G.q+8+8+8+8+8+8+8+p+Z _ + . . . . . . . . . . . . ",
". . . . . . . . . . . . * : y.h., L.f+e+V.;+;+;+;+;+;+;+;+X., B.A.Q.w+7 x+h+8+8+8+8+h+1+|+_ < . . . . . . . . . . . . . ",
". . . . . . . . . . . . . . . = - |+r+`.Z.y+;+;+;+;+;+;+>+3.( t+A.)+z+D.A.A+9+8+8+B+C.( '.&.. . . . . . . . . . . . . . ",
". . . . . . . . . . . . . . . . ' P.C+++I.L.N.W.;+;+;+;+(+v+)+1+A.)+++++K., x+q+7+|+[.8 r . . . . . . . . . . . . . . . ",
". . . . . . . . . . . . . . . . /.A+D+7+E+t+D.L.9+F+;+G+}+Y 1+7+A.)+++++P.Q.| D.H+|+.+G.x . . . . . . . . . . . . . . . ",
". . . . . . . . . . . . . . . . 0 h.Y.q+I+7+1+J+I.d Y./+3.!.1+I+!.)+++++++P.C.I..+++2.=.* . . . . . . . . . . . . . . . ",
". . . . . . . . . . . . . . . . < ).d+K+L+q+i+7+1+.+[.Z 7 J.I+I+7  +++++++++++++M+B., %.&.. . . . . . . . . . . . . . . ",
". . . . . . . . . . . . . . . . : G.i+K+N+N+L+9+I+E+++I.7 G.i+i+7 C.++++++++++++I.7 ' 0 . . . . . . . . . . . . . . . . ",
". . . . . . . . . . . . . . . . : ' C.I+L+N+N+K+L+B+I+C+t+E+f+i+7 Q.++++++++z+K.Z J * . . . . . . . . . . . . . . . . . ",
". . . . . . . . . . . . . . . . . : 9.a C.I+K+K+N+O+Y.i+E+7+i+I+P+Q.++++++++K.( O.< . . . . . . . . . . . . . . . . . . ",
". . . . . . . . . . . . . . . . . . * ) # l R f+O+N+N+O+9+i+B+U.z.Q.++++M+K.- (.&.. . . . . . . . . . . . . . . . . . . ",
". . . . . . . . . . . . . . . . . . . . &.) # $ 0+9+K+N+N+O+O+7+z.Q.++++I.d x.&.. . . . . . . . . . . . . . . . . . . . ",
". . . . . . . . . . . . . . . . . . . . . . . + :...x+9+Q+K+N+U.z.Q.z+K.).& . . . . . . . . . . . . . . . . . . . . . . ",
". . . . . . . . . . . . . . . . . . . . . . . . &.) y.0+'+c+O+I+6 2.B.R : &.. . . . . . . . . . . . . . . . . . . . . . ",
". . . . . . . . . . . . . . . . . . . . . . . . . . . r % _.=.D.6 `...;.. . . . . . . . . . . . . . . . . . . . . . . . ",
". . . . . . . . . . . . . . . . . . . . . . . . . . . . &.+ (.~.!.d @ &.. . . . . . . . . . . . . . . . . . . . . . . . ",
". . . . . . . . . . . . . . . . . . . . . . . . . . . . . . . * @ + . . . . . . . . . . . . . . . . . . . . . . . . . . ",
". . . . . . . . . . . . . . . . . . . . . . . . . . . . . . . . . . . . . . . . . . . . . . . . . . . . . . . . . . . . ",
". . . . . . . . . . . . . . . . . . . . . . . . . . . . . . . . . . . . . . . . . . . . . . . . . . . . . . . . . . . . ",
". . . . . . . . . . . . . . . . . . . . . . . . . . . . . . . . . . . . . . . . . . . . . . . . . . . . . . . . . . . . ",
". . . . . . . . . . . . . . . . . . . . . . . . . . . . . . . . . . . . . . . . . . . . . . . . . . . . . . . . . . . . ",
". . . . . . . . . . . . . . . . . . . . . . . . . . . . . . . . . . . . . . . . . . . . . . . . . . . . . . . . . . . . ",
". . . . . . . . . . . . . . . . . . . . . . . . . . . . . . . . . . . . . . . . . . . . . . . . . . . . . . . . . . . . ",
". . . . . . . . . . . . . . . . . . . . . . . . . . . . . . . . . . . . . . . . . . . . . . . . . . . . . . . . . . . . ",
". . . . . . . . . . . . . . . . . . . . . . . . . . . . . . . . . . . . . . . . . . . . . . . . . . . . . . . . . . . . ",
". . . . . . . . . . . . . . . . . . . . . . . . . . . . . . . . . . . . . . . . . . . . . . . . . . . . . . . . . . . . ",
". . . . . . . . . . . . . . . . . . . . . . . . . . . . . . . . . . . . . . . . . . . . . . . . . . . . . . . . . . . . ",
". . . . . . . . . . . . . . . . . . . . . . . . . . . . . . . . . . . . . . . . . . . . . . . . . . . . . . . . . . . . ",
". . . . . . . . . . . . . . . . . . . . . . . . . . . . . . . . . . . . . . . . . . . . . . . . . . . . . . . . . . . . ",
". . . . . . . . . . . . . . . . . . . . . . . . . . . . . . . . . . . . . . . . . . . . . . . . . . . . . . . . . . . . "};
