/* XPM */
static char *magick[] = {
/* columns rows colors chars-per-pixel */
"16 15 11 1",
"  c black",
". c navy",
"X c blue",
"o c #008080",
"O c cyan",
"+ c #808000",
"@ c yellow",
"# c #808080",
"$ c #c0c0c0",
"% c white",
"& c None",
/* pixels */
"&&&&&&&&#&&&&&&&",
"&&&&&&&#$ &&&&&&",
"&&&####O%$ &&&&&",
"&&#@$#%%X%$ &&&&",
"&#@$#%%XO%O$ ##&",
"&#$#%%XO%X%%$ @ ",
"&#oO$.#$.#$$O$  ",
"#############O$ ",
"#%%%%%%%%%%# $$ ",
"#%$@$@$@$@$@ #  ",
"&#%$@$@$@$@$# + ",
"&#%@$@$@$@$@$ + ",
"&&#%@$@$@$@$@+  ",
"&&#+++++++++++  ",
"&&&             "
};
