/* XPM */
static char * info_icon_xpm[] = {
"16 15 47 1",
" 	c None",
".	c #A5B6C8",
"+	c #4B6075",
"@	c #1D334A",
"#	c #1D334B",
"$	c #748EA9",
"%	c #0E2C4E",
"&	c #122C47",
"*	c #C6DEF6",
"=	c #D0E5FF",
"-	c #738EA9",
";	c #A4B6CA",
">	c #0A2D53",
",	c #072E57",
"'	c #425F7D",
")	c #EBFFFF",
"!	c #EAFFFF",
"~	c #395877",
"{	c #052F59",
"]	c #0B2E54",
"^	c #A4B7C8",
"/	c #466079",
"(	c #0F2C4A",
"_	c #3F5972",
":	c #3C5977",
"<	c #0A2E52",
"[	c #042F5A",
"}	c #082F58",
"|	c #47617A",
"1	c #173452",
"2	c #052E5A",
"3	c #CFECFF",
"4	c #E7FFFF",
"5	c #22466A",
"6	c #032F5C",
"7	c #0C2D4C",
"8	c #032E58",
"9	c #46607B",
"0	c #264361",
"a	c #264562",
"b	c #052F57",
"c	c #D2EFFF",
"d	c #E4FFFF",
"e	c #062D56",
"f	c #102B48",
"g	c #132B45",
"h	c #122A44",
"                ",
"                ",
"     .+@#+.     ",
"    $%&*=&%-    ",
"   ;>,')!~{]^   ",
"   /,{(_:<[}|   ",
"   12[3!456{1   ",
"   12[()!7[81   ",
"   9,{0))a{b|   ",
"   ;>,c!)de>;   ",
"    $%fgh&%$    ",
"     .+##+.     ",
"                ",
"                ",
"                "};
