/* XPM */
static char * nav_configuration_xpm[] = {
"45 50 841 2",
"  	c None",
". 	c #343533",
"+ 	c #232422",
"@ 	c #2B2B29",
"# 	c #3B3C39",
"$ 	c #4E4E4C",
"% 	c #525451",
"& 	c #454643",
"* 	c #414240",
"= 	c #3A3A38",
"- 	c #40403E",
"; 	c #4A4A47",
"> 	c #51514E",
", 	c #535452",
"' 	c #555554",
") 	c #464845",
"! 	c #474744",
"~ 	c #555552",
"{ 	c #605F5C",
"] 	c #666561",
"^ 	c #656460",
"/ 	c #585754",
"( 	c #4D4C49",
"_ 	c #4A4A48",
": 	c #4B4D4A",
"< 	c #494B48",
"[ 	c #4D4E4B",
"} 	c #6A6966",
"| 	c #8C8A86",
"1 	c #9C9A95",
"2 	c #979590",
"3 	c #7A7873",
"4 	c #5D5B57",
"5 	c #4D4D49",
"6 	c #494946",
"7 	c #474845",
"8 	c #60605C",
"9 	c #888782",
"0 	c #AAA7A2",
"a 	c #B3B1AA",
"b 	c #9E9C96",
"c 	c #807E79",
"d 	c #5D5D59",
"e 	c #40413E",
"f 	c #434443",
"g 	c #3C3D3C",
"h 	c #3F403E",
"i 	c #4D4E4C",
"j 	c #525351",
"k 	c #444442",
"l 	c #62615D",
"m 	c #8B8984",
"n 	c #ADAAA5",
"o 	c #B8B5B0",
"p 	c #A7A59F",
"q 	c #74736F",
"r 	c #4A4946",
"s 	c #3A3B39",
"t 	c #434442",
"u 	c #505150",
"v 	c #545554",
"w 	c #575857",
"x 	c #535453",
"y 	c #565655",
"z 	c #595A59",
"A 	c #494948",
"B 	c #484846",
"C 	c #6A6965",
"D 	c #9B9995",
"E 	c #C2C0BB",
"F 	c #BCBAB4",
"G 	c #807F7B",
"H 	c #373736",
"I 	c #4D4D4D",
"J 	c #5C5C5C",
"K 	c #727272",
"L 	c #808080",
"M 	c #767676",
"N 	c #515151",
"O 	c #515150",
"P 	c #494A49",
"Q 	c #4B4C4B",
"R 	c #4F4F4D",
"S 	c #575755",
"T 	c #8E8C89",
"U 	c #C4C2BE",
"V 	c #C2C1BC",
"W 	c #84837F",
"X 	c #333432",
"Y 	c #4F4F4F",
"Z 	c #5A5A5A",
"` 	c #7B7B7B",
" .	c #9F9F9F",
"..	c #AFAFAF",
"+.	c #9B9B9B",
"@.	c #6A6A6A",
"#.	c #4A4A4A",
"$.	c #454545",
"%.	c #4D4E4D",
"&.	c #51524F",
"*.	c #484947",
"=.	c #4D4D4C",
"-.	c #474746",
";.	c #626160",
">.	c #989795",
",.	c #CAC9C5",
"'.	c #C6C5C0",
").	c #8A8984",
"!.	c #4F4F4C",
"~.	c #343432",
"{.	c #41413F",
"].	c #515250",
"^.	c #393939",
"/.	c #4B4B4B",
"(.	c #6B6B6B",
"_.	c #C0C0C0",
":.	c #BBBBBB",
"<.	c #9D9D9D",
"[.	c #696969",
"}.	c #464645",
"|.	c #424341",
"1.	c #4B4C4A",
"2.	c #4A4B48",
"3.	c #4F4F4E",
"4.	c #545453",
"5.	c #424241",
"6.	c #373735",
"7.	c #2D2D2D",
"8.	c #3D3D3C",
"9.	c #7F7F7E",
"0.	c #B2B1AF",
"a.	c #D2D0CC",
"b.	c #C8C6C0",
"c.	c #94938D",
"d.	c #61605C",
"e.	c #41403D",
"f.	c #434341",
"g.	c #4A4A49",
"h.	c #444444",
"i.	c #757575",
"j.	c #B6B6B6",
"k.	c #CBCBCB",
"l.	c #AAAAAA",
"m.	c #818181",
"n.	c #474947",
"o.	c #3C3D3A",
"p.	c #4D4D4B",
"q.	c #636260",
"r.	c #777673",
"s.	c #6E6C6A",
"t.	c #545351",
"u.	c #3E3D3C",
"v.	c #4E4E4D",
"w.	c #727271",
"x.	c #A2A1A0",
"y.	c #C8C6C3",
"z.	c #D3D1CC",
"A.	c #C6C4BC",
"B.	c #A2A099",
"C.	c #7A7872",
"D.	c #53524E",
"E.	c #454543",
"F.	c #505050",
"G.	c #3C3C3C",
"H.	c #747373",
"I.	c #A0A0A0",
"J.	c #A8A8A8",
"K.	c #848484",
"L.	c #5F5F5F",
"M.	c #484847",
"N.	c #474846",
"O.	c #535552",
"P.	c #5B5D5A",
"Q.	c #353533",
"R.	c #4D4D4A",
"S.	c #716F6C",
"T.	c #959390",
"U.	c #969390",
"V.	c #807D7A",
"W.	c #72706C",
"X.	c #6E6D69",
"Y.	c #81807E",
"Z.	c #A4A3A1",
"`.	c #C5C3C0",
" +	c #D3D1CD",
".+	c #CDCAC4",
"++	c #C1BDB6",
"@+	c #AFACA4",
"#+	c #918F88",
"$+	c #63615C",
"%+	c #454441",
"&+	c #333331",
"*+	c #4B4A4A",
"=+	c #555455",
"-+	c #686767",
";+	c #717171",
">+	c #6D6D6D",
",+	c #636363",
"'+	c #525252",
")+	c #464646",
"!+	c #464746",
"~+	c #515251",
"{+	c #5E605D",
"]+	c #686663",
"^+	c #8E8B88",
"/+	c #A39F9B",
"(+	c #A7A49F",
"_+	c #A9A6A1",
":+	c #AEACA7",
"<+	c #BCBAB5",
"[+	c #CDCBC7",
"}+	c #D6D4D0",
"|+	c #D4D1CC",
"1+	c #C9C6BF",
"2+	c #C1BDB5",
"3+	c #B9B6AD",
"4+	c #A29F97",
"5+	c #74716B",
"6+	c #4D4C47",
"7+	c #353532",
"8+	c #4F4E4E",
"9+	c #575656",
"0+	c #6A696A",
"a+	c #757475",
"b+	c #666666",
"c+	c #474747",
"d+	c #363636",
"e+	c #3B3B3B",
"f+	c #454645",
"g+	c #525352",
"h+	c #5C5D5B",
"i+	c #4E4F4C",
"j+	c #555351",
"k+	c #72706D",
"l+	c #94918D",
"m+	c #AFACA7",
"n+	c #BEBBB5",
"o+	c #C8C5BF",
"p+	c #D0CDC7",
"q+	c #D5D2CD",
"r+	c #D2CFCB",
"s+	c #C8C4BE",
"t+	c #C6C2BB",
"u+	c #C4C0B8",
"v+	c #B2AFA7",
"w+	c #8C8982",
"x+	c #63605B",
"y+	c #403F3B",
"z+	c #3C3B39",
"A+	c #585758",
"B+	c #686768",
"C+	c #737373",
"D+	c #6B6A6A",
"E+	c #545454",
"F+	c #3E3E3E",
"G+	c #353535",
"H+	c #404040",
"I+	c #4F504E",
"J+	c #5D5F5C",
"K+	c #565755",
"L+	c #4E4F4D",
"M+	c #6E6C68",
"N+	c #878480",
"O+	c #92908A",
"P+	c #98958F",
"Q+	c #9C9994",
"R+	c #9E9C97",
"S+	c #9F9D98",
"T+	c #A3A19C",
"U+	c #B0AEA9",
"V+	c #C1BFB9",
"W+	c #CCCAC3",
"X+	c #C4C2BB",
"Y+	c #ABA8A2",
"Z+	c #87857F",
"`+	c #5E5C58",
" @	c #494744",
".@	c #3D3C3A",
"+@	c #3F3F3E",
"@@	c #494949",
"#@	c #555454",
"$@	c #676667",
"%@	c #737172",
"&@	c #535253",
"*@	c #565756",
"=@	c #5B5D5B",
"-@	c #494947",
";@	c #4B4A48",
">@	c #53524F",
",@	c #5B5A56",
"'@	c #5A5854",
")@	c #5B5955",
"!@	c #5D5C58",
"~@	c #676562",
"{@	c #84827F",
"]@	c #ABA9A5",
"^@	c #CBCAC5",
"/@	c #D3D2CC",
"(@	c #C7C5C0",
"_@	c #ABA9A3",
":@	c #83807C",
"<@	c #5D5B58",
"[@	c #3F3D3B",
"}@	c #2E2D2C",
"|@	c #313130",
"1@	c #696868",
"2@	c #666566",
"3@	c #565555",
"4@	c #4C4B4C",
"5@	c #504F50",
"6@	c #5D5D5C",
"7@	c #656665",
"8@	c #555654",
"9@	c #525350",
"0@	c #464644",
"a@	c #3D3D3B",
"b@	c #373734",
"c@	c #363533",
"d@	c #363633",
"e@	c #3F3E3B",
"f@	c #585755",
"g@	c #80807D",
"h@	c #B1B0AD",
"i@	c #D0CFCB",
"j@	c #D9D8D3",
"k@	c #CAC8C3",
"l@	c #AEABA7",
"m@	c #807E7A",
"n@	c #4D4A48",
"o@	c #2E2E2C",
"p@	c #313030",
"q@	c #5E5E5E",
"r@	c #5B5B5B",
"s@	c #545354",
"t@	c #636463",
"u@	c #585956",
"v@	c #51514F",
"w@	c #3F403D",
"x@	c #424340",
"y@	c #5E5D5B",
"z@	c #878784",
"A@	c #B5B4B1",
"B@	c #D6D5D2",
"C@	c #D6D5D1",
"D@	c #C1BFBC",
"E@	c #918F8B",
"F@	c #585654",
"G@	c #393837",
"H@	c #3D3C3D",
"I@	c #464747",
"J@	c #585858",
"K@	c #575757",
"L@	c #575855",
"M@	c #575856",
"N@	c #50514F",
"O@	c #5E5F5D",
"P@	c #848482",
"Q@	c #B6B5B3",
"R@	c #C6C6C3",
"S@	c #848380",
"T@	c #5D5C5A",
"U@	c #50504F",
"V@	c #4D4C4D",
"W@	c #434343",
"X@	c #343434",
"Y@	c #323332",
"Z@	c #585959",
"`@	c #626262",
" #	c #585957",
".#	c #5F5F5D",
"+#	c #888786",
"@#	c #9F9F9D",
"##	c #8F8F8E",
"$#	c #6C6C6B",
"%#	c #5A5A59",
"&#	c #595958",
"*#	c #4C4C4C",
"=#	c #343333",
"-#	c #242324",
";#	c #292929",
">#	c #3F3F3F",
",#	c #555555",
"'#	c #4E4F4E",
")#	c #6C6D6B",
"!#	c #6D6D6C",
"~#	c #60605F",
"{#	c #575756",
"]#	c #434342",
"^#	c #343332",
"/#	c #2B2A29",
"(#	c #363535",
"_#	c #474646",
":#	c #4C4E4C",
"<#	c #4A4B4A",
"[#	c #484848",
"}#	c #474847",
"|#	c #5D5E5D",
"1#	c #525251",
"2#	c #474645",
"3#	c #4B4948",
"4#	c #474543",
"5#	c #3B3A38",
"6#	c #363634",
"7#	c #2E3132",
"8#	c #202223",
"9#	c #1F2022",
"0#	c #272829",
"a#	c #2D2E2F",
"b#	c #373738",
"c#	c #424343",
"d#	c #4F5050",
"e#	c #4D4C4B",
"f#	c #585856",
"g#	c #656462",
"h#	c #656361",
"i#	c #585653",
"j#	c #484644",
"k#	c #474C4F",
"l#	c #383E41",
"m#	c #363B3F",
"n#	c #303438",
"o#	c #313539",
"p#	c #2E3136",
"q#	c #25272B",
"r#	c #25272A",
"s#	c #3A3B3C",
"t#	c #4D4E4F",
"u#	c #3F3E3E",
"v#	c #3E3D3D",
"w#	c #686866",
"x#	c #797876",
"y#	c #807E7C",
"z#	c #7C7976",
"A#	c #6C6966",
"B#	c #514F4C",
"C#	c #403F3C",
"D#	c #3B4247",
"E#	c #384149",
"F#	c #454E57",
"G#	c #4C565F",
"H#	c #515A64",
"I#	c #4A525C",
"J#	c #333943",
"K#	c #22272E",
"L#	c #292A2E",
"M#	c #38393B",
"N#	c #3B3B3C",
"O#	c #333233",
"P#	c #4B4B4A",
"Q#	c #696967",
"R#	c #878685",
"S#	c #9D9B98",
"T#	c #928F8B",
"U#	c #75736F",
"V#	c #565450",
"W#	c #3B3B39",
"X#	c #494E50",
"Y#	c #3A4146",
"Z#	c #444D54",
"`#	c #56626D",
" $	c #73818F",
".$	c #8493A2",
"+$	c #8695A5",
"@$	c #7B8A9A",
"#$	c #5C6877",
"$$	c #38414C",
"%$	c #1F242A",
"&$	c #1F2124",
"*$	c #2D2D2E",
"=$	c #363536",
"-$	c #81817F",
";$	c #A3A2A0",
">$	c #B6B5B2",
",$	c #B4B2AE",
"'$	c #A19F9A",
")$	c #817E7A",
"!$	c #42413F",
"~$	c #3C3C3B",
"{$	c #40464B",
"]$	c #3E4750",
"^$	c #798896",
"/$	c #96A7B7",
"($	c #A2B4C5",
"_$	c #9EB0C4",
":$	c #93A6BA",
"<$	c #798A9C",
"[$	c #515E6D",
"}$	c #272F39",
"|$	c #1A1E22",
"1$	c #292A2B",
"2$	c #3D3E3D",
"3$	c #9B9B99",
"4$	c #C1C1BD",
"5$	c #CCCBC7",
"6$	c #C4C2BD",
"7$	c #A8A6A1",
"8$	c #807F7A",
"9$	c #595854",
"0$	c #3F3F3C",
"a$	c #3C3C3A",
"b$	c #4D5053",
"c$	c #42484C",
"d$	c #485158",
"e$	c #5B6772",
"f$	c #7C8A98",
"g$	c #99A9B9",
"h$	c #A2B2C3",
"i$	c #9EB0C2",
"j$	c #96AABF",
"k$	c #91A6BC",
"l$	c #8498AD",
"m$	c #647587",
"n$	c #38434F",
"o$	c #22282E",
"p$	c #2D2F31",
"q$	c #4A4B49",
"r$	c #7C7C7B",
"s$	c #AEAEAB",
"t$	c #CDCDCA",
"u$	c #D7D6D2",
"v$	c #C7C6C1",
"w$	c #AAA9A3",
"x$	c #82817B",
"y$	c #5A5954",
"z$	c #41403C",
"A$	c #3B3B38",
"B$	c #454542",
"C$	c #4D5153",
"D$	c #464B4F",
"E$	c #485057",
"F$	c #5D6872",
"G$	c #7F8D9A",
"H$	c #98A8B7",
"I$	c #A3B4C4",
"J$	c #9AABBC",
"K$	c #8FA1B4",
"L$	c #8B9FB5",
"M$	c #8BA1B9",
"N$	c #859AB2",
"O$	c #697C91",
"P$	c #3D4958",
"Q$	c #262C33",
"R$	c #2F3234",
"S$	c #5E5F5E",
"T$	c #4E4E4E",
"U$	c #5E5E5D",
"V$	c #888887",
"W$	c #B6B6B4",
"X$	c #D6D6D3",
"Y$	c #D8D8D4",
"Z$	c #C9C9C3",
"`$	c #A7A6A0",
" %	c #7F7D78",
".%	c #575550",
"+%	c #3D3C39",
"@%	c #3A3A37",
"#%	c #424240",
"$%	c #494C4F",
"%%	c #4D545A",
"&%	c #646E78",
"*%	c #84919D",
"=%	c #9EAEBD",
"-%	c #A1B1C2",
";%	c #95A6B7",
">%	c #8698AB",
",%	c #7F93A8",
"'%	c #849AB1",
")%	c #869CB5",
"!%	c #7E94AC",
"~%	c #65778C",
"{%	c #3B4756",
"]%	c #313335",
"^%	c #626362",
"/%	c #616261",
"(%	c #888787",
"_%	c #B9B9B8",
":%	c #D6D5D3",
"<%	c #DCDBD7",
"[%	c #C5C3BE",
"}%	c #787671",
"|%	c #51504C",
"1%	c #383835",
"2%	c #3F403F",
"3%	c #4C4D4C",
"4%	c #4D5152",
"5%	c #464B4E",
"6%	c #50575C",
"7%	c #666F78",
"8%	c #8995A1",
"9%	c #A0AEBD",
"0%	c #A4B5C5",
"a%	c #96A8BA",
"b%	c #8396AA",
"c%	c #7B8FA5",
"d%	c #7C92AA",
"e%	c #8299B2",
"f%	c #7F96AF",
"g%	c #71869D",
"h%	c #596A7D",
"i%	c #292F35",
"j%	c #37393B",
"k%	c #8D8D8C",
"l%	c #BABAB9",
"m%	c #D7D6D4",
"n%	c #CFCDCA",
"o%	c #B5B3AF",
"p%	c #656461",
"q%	c #383838",
"r%	c #43484A",
"s%	c #4C5257",
"t%	c #6C747C",
"u%	c #8F99A5",
"v%	c #A9B6C4",
"w%	c #A9B8C8",
"x%	c #97A8BA",
"y%	c #8497AC",
"z%	c #798EA4",
"A%	c #8198B1",
"B%	c #8097B1",
"C%	c #748AA2",
"D%	c #5D7084",
"E%	c #455362",
"F%	c #323B44",
"G%	c #33383C",
"H%	c #444747",
"I%	c #565857",
"J%	c #5A5B5A",
"K%	c #4C4D4B",
"L%	c #B5B4B2",
"M%	c #C3C2C0",
"N%	c #B4B2B0",
"O%	c #8D8C89",
"P%	c #6E6E6B",
"Q%	c #5B5B5A",
"R%	c #3D3D3D",
"S%	c #424649",
"T%	c #4F5559",
"U%	c #687077",
"V%	c #939CA6",
"W%	c #ADB9C5",
"X%	c #AFBDCB",
"Y%	c #9DAEBF",
"Z%	c #8699AD",
"`%	c #7C91A8",
" &	c #7C93AC",
".&	c #8098B2",
"+&	c #7F97B0",
"@&	c #7289A1",
"#&	c #5F7387",
"$&	c #465564",
"%&	c #353F49",
"&&	c #33393E",
"*&	c #424647",
"=&	c #535655",
"-&	c #5E605E",
";&	c #848382",
">&	c #A1A09F",
",&	c #A2A19F",
"'&	c #898886",
")&	c #767674",
"!&	c #737371",
"~&	c #6C6C6A",
"{&	c #363B3E",
"]&	c #43494E",
"^&	c #676F77",
"/&	c #919AA4",
"(&	c #B3BEC9",
"_&	c #B8C5D1",
":&	c #A2B1C1",
"<&	c #8B9CB0",
"[&	c #7D91A8",
"}&	c #7E95AE",
"|&	c #839BB5",
"1&	c #8099B3",
"2&	c #768CA5",
"3&	c #5E7287",
"4&	c #455464",
"5&	c #313B46",
"6&	c #2E343A",
"7&	c #3D4142",
"8&	c #505252",
"9&	c #5F615F",
"0&	c #484948",
"a&	c #717170",
"b&	c #878785",
"c&	c #8D8C8A",
"d&	c #8B8B88",
"e&	c #8E8E8C",
"f&	c #868684",
"g&	c #5F5F5E",
"h&	c #252525",
"i&	c #33373C",
"j&	c #50565E",
"k&	c #88929C",
"l&	c #C0CBD6",
"m&	c #B2BECC",
"n&	c #94A3B5",
"o&	c #8395AB",
"p&	c #8096AF",
"q&	c #829AB5",
"r&	c #728AA2",
"s&	c #607489",
"t&	c #465565",
"u&	c #313C46",
"v&	c #2C3238",
"w&	c #383B3D",
"x&	c #4D4E4E",
"y&	c #5A5B59",
"z&	c #686766",
"A&	c #7E7D7C",
"B&	c #838381",
"C&	c #828381",
"D&	c #787876",
"E&	c #2C2C2B",
"F&	c #2D3137",
"G&	c #585E67",
"H&	c #9DA8B4",
"I&	c #C6D2DF",
"J&	c #C2CEDB",
"K&	c #ABB7C6",
"L&	c #8F9FB1",
"M&	c #8598AF",
"N&	c #859BB5",
"O&	c #8199B3",
"P&	c #768EA6",
"Q&	c #5F7388",
"R&	c #465566",
"S&	c #2F3A45",
"T&	c #272E34",
"U&	c #333639",
"V&	c #474848",
"W&	c #585958",
"X&	c #616260",
"Y&	c #565656",
"Z&	c #3C3D3B",
"`&	c #2C3037",
" *	c #555C66",
".*	c #95A2B0",
"+*	c #BBCAD9",
"@*	c #BAC8D8",
"#*	c #AAB8C8",
"$*	c #98A8BB",
"%*	c #8EA2B9",
"&*	c #748BA3",
"**	c #5F7488",
"=*	c #455565",
"-*	c #303336",
";*	c #5F605F",
">*	c #393938",
",*	c #333433",
"'*	c #343534",
")*	c #3B3C3A",
"!*	c #454644",
"~*	c #4C4E4B",
"{*	c #292D34",
"]*	c #808E9E",
"^*	c #A3B4C6",
"/*	c #ACBDCF",
"(*	c #A7B9CB",
"_*	c #9DAFC3",
":*	c #90A4BA",
"<*	c #7F93A9",
"[*	c #63778B",
"}*	c #2E3944",
"|*	c #242A31",
"1*	c #2C3033",
"2*	c #3F4141",
"3*	c #515352",
"4*	c #393B39",
"5*	c #373836",
"6*	c #373937",
"7*	c #393A38",
"8*	c #40413F",
"9*	c #4B4D4B",
"0*	c #2C2F35",
"a*	c #3C434C",
"b*	c #5E6B7A",
"c*	c #7E8FA2",
"d*	c #93A7BB",
"e*	c #9AAEC3",
"f*	c #94A8BD",
"g*	c #697B8E",
"h*	c #4A5968",
"i*	c #2E3943",
"j*	c #242B31",
"k*	c #2B2D31",
"l*	c #3F4042",
"m*	c #4F5150",
"n*	c #515350",
"o*	c #393B40",
"p*	c #383D43",
"q*	c #434D58",
"r*	c #5A6978",
"s*	c #728496",
"t*	c #7B8FA3",
"u*	c #788BA0",
"v*	c #697A8C",
"w*	c #4E5C6B",
"x*	c #343E48",
"y*	c #242B30",
"z*	c #2B2E31",
"A*	c #3C3D3E",
"B*	c #4E4F4F",
"C*	c #5B5C5B",
"D*	c #47494B",
"E*	c #3C4043",
"F*	c #383E45",
"G*	c #3C4650",
"H*	c #475462",
"I*	c #4A5969",
"J*	c #495867",
"K*	c #424E5B",
"L*	c #343D46",
"M*	c #2B3136",
"N*	c #2E3233",
"O*	c #494B4D",
"P*	c #3E4244",
"Q*	c #343A3F",
"R*	c #2E373E",
"S*	c #2C353E",
"T*	c #2C343C",
"U*	c #2C323A",
"V*	c #2E3237",
"W*	c #35383A",
"X*	c #424443",
"Y*	c #5C5D5C",
"Z*	c #494C4B",
"`*	c #3C4041",
" =	c #34383A",
".=	c #313538",
"+=	c #303437",
"@=	c #343639",
"#=	c #3D3F40",
"$=	c #4A4B4B",
"%=	c #555655",
"&=	c #5D5F5D",
"*=	c #444746",
"==	c #424444",
"-=	c #404243",
";=	c #434445",
">=	c #4B4C4C",
"                                                                                          ",
"                                                                                          ",
"                                                                                          ",
"                        . + @ # $                                                         ",
"                    % & * = - ; > , '                                                     ",
"                    ) ! ~ { ] ^ / ( _ $                                                   ",
"                  : < [ } | 1 2 3 4 5 6                                                   ",
"                    7 & 8 9 0 a b c d ! e                             f g h i             ",
"                    j k ( l m n o p q r s t                         u v w ' x y z         ",
"                      A B 6 C D E F G 6 H t                       I J K L M J N O         ",
"              P Q       R - S T U V W 6 X *                     Y Z `  ...+.@.#.$.%.      ",
"          &.*.A P =.    %.-.;.>.,.'.).!.~.{.].                ^./.(. ._.:.<.[.}.|.1.      ",
"          2.3.4.R 5.6.7.8.4.9.0.a.b.c.d.e.f.g.                7.h.i.j.k.l.m.w t n.].      ",
"        o.p.q.r.s.t.k u.v.w.x.y.z.A.B.C.D.E.-               F.G.I H.I.J.K.L.M.N.O.P.      ",
"        Q.R.S.T.U.V.W.X.Y.Z.`. +.+++@+#+$+%+&+              *+=+-+;+>+,+'+)+!+~+{+        ",
"        - !.]+^+/+(+_+:+<+[+}+|+1+2+3+4+5+6+7+{.          8+9+0+a+b+c+d+e+f+g+h+          ",
"        $ i+j+k+l+m+n+o+p+q+r+.+s+t+u+v+w+x+y+z+        8+A+B+C+D+E+F+G+H+I+J+            ",
"        K+L+B j+M+N+O+P+Q+R+S+T+U+V+W+X+Y+Z+`+ @.@+@  @@#@$@%@B+&@@@F.E+*@=@              ",
"          j -@;@>@,@,@'@)@,@!@~@{@]@^@/@(@_@:@<@[@}@|@c+J 1@2@3@4@5@6@7@                  ",
"            8@9@$ 0@a@b@c@d@b@e@f@g@h@i@j@k@l@m@n@o@p@I q@r@F./.s@q@t@                    ",
"              u@v@-.5.- h w@e x@_ y@z@A@B@C@D@E@F@G@H@Y F.c+I@F.J b+                      ",
"                    J@K@S L@L@M@N@R O@P@Q@R@0.S@T@U@V@W@X@Y@$.Z@`@                        ",
"                                 #N@i .#+#@###$#%#&#*#=#-#;#>#,#                          ",
"                                  P.I+'#J )#!#~#{#U@]#^#/#/#(#_#E+                        ",
"                                  :#<#[#}#u |#6@1#-.2#3#4#5#6#u.A                         ",
"                            7#8#9#0#a#b#c#d#*@~+g.e#f#g#h#i#j#z+= {.                      ",
"                        k#l#m#n#o#p#q#r#s#t#*#u#v#1#w#x#y#z#A#B#C#5#k                     ",
"                        D#E#F#G#H#I#J#K#L#M#N#O#=#P#Q#R#>.S#T#U#V#e@W#]#                  ",
"                    X#Y#Z#`# $.$+$@$#$$$%$&$*$=$d+8.{#-$;$>$,$'$)$'@!$~$-.1#              ",
"                    {$]$`#^$/$($_$:$<$[$}$|$1$2$]#8.B !#3$4$5$6$7$8$9$0$a$k j             ",
"                b$c$d$e$f$g$h$i$j$k$l$m$n$o$p$}#x q$$.y r$s$t$u$v$w$x$y$z$A$B$I+          ",
"              C$D$E$F$G$H$I$J$K$L$M$N$O$P$Q$R$%.S$w T$*#U$V$W$X$Y$Z$`$ %.%+%@%#%N@        ",
"            $%k#%%&%*%=%-%;%>%,%'%)%!%~%{%Q$]%d#^%/%r@F.Y ~#(%_%:%<%[%T+}%|%1%6#2%3%      ",
"          4%5%6%7%8%9%0%a%b%c%d%e%f%g%h%n$i%j%'+7@    *@F.=./%k%l%m%n%o%| p%0@H q%W@*#    ",
"          r%s%t%u%v%w%x%y%z%d%A%B%C%D%E%F%G%H%I%        J%K%'#~#V$L%M%N%O%P%Q%=.F+R%G.    ",
"        S%T%U%V%W%X%Y%Z%`% &.&+&@&#&$&%&&&*&=&-&            '#<#q@;&>&,&'&)&!&~&O G.7.    ",
"      {&]&^&/&(&_&:&<&[&}&|&1&2&3&4&5&6&7&8&9&                0&#.9+a&b&c&d&e&f&g&R%h&    ",
"      i&j&k&(&l&m&n&o&p&q&1&r&s&t&u&v&w&x&y&                    T$)+O z&A&B&C&D&y 8.E&    ",
"      F&G&H&I&J&K&L&M&N&O&P&Q&R&S&T&U&V&W&X&                      )+h./.Y&&#Y&U@5.h Z&    ",
"      `& *.*+*@*#*$*%*)%&***=*S&T&-*H%v ;*                          %.]#>*,*Y@'*)*!*~*    ",
"      {*I#]*^*/*(*_*:*<*[*=*}*|*1*2*3*|#                              !*4*5*6*7*8*9*      ",
"      0*a*b*c*d*e*f*y%g*h*i*j*k*l*m*=@                                  n*n*n*n*          ",
"      o*p*q*r*s*t*u*v*w*x*y*z*A*B*C*                                                      ",
"      D*E*F*G*H*I*J*K*L*M*N*2*d#r@                                                        ",
"        O*P*Q*R*S*T*U*V*W*X*~+Y*                                                          ",
"          Z*`* =.=+=@=#=$=%=&=                                                            ",
"              *===-=;=>=Y&O@                                                              ",
"                                                                                          ",
"                                                                                          ",
"                                                                                          "};
