/* XPM */
static char * class_xpm[] = {
"16 16 22 1",
" 	c None",
".	c #242446",
"+	c #9999FF",
"@	c #7A7ACC",
"#	c #FFFF99",
"$	c #CCCC7A",
"%	c #FF9900",
"&	c #CC7A00",
"*	c #553300",
"=	c #CC8F56",
"-	c #FFB36C",
";	c #D89E9C",
">	c #330000",
",	c #6D0F0F",
"'	c #570C0C",
")	c #CC6666",
"!	c #A35252",
"~	c #AD7E7D",
"{	c #CC9999",
"]	c #A37A7A",
"^	c #FFFFFF",
"/	c #000000",
"                ",
"                ",
"     ////*      ",
"    /#$#**^     ",
"   /#$#*%*^     ",
"  /****%&*^     ",
"  /=-=*&%*////  ",
"  /-=-*%*;];>>^ ",
"  /=-=**;~{>,>^ ",
"  /...>>>>>,'>^ ",
"  /@+@>!)!>',>^ ",
"  /+@+>)!)>,>^  ",
"  /@+@>!)!>>^   ",
"  ....>>>>>^    ",
"   ^^^^^^^^     ",
"                "};
