/* XPM */
static char * pear_xpm[] = {
"106 46 206 2",
"  	c None",
". 	c #428E1A",
"+ 	c #329A02",
"@ 	c #369A02",
"# 	c #3E8E1A",
"$ 	c #329602",
"% 	c #369606",
"& 	c #428A1E",
"* 	c #429E0E",
"= 	c #459A12",
"- 	c #41960F",
"; 	c #3A920A",
"> 	c #469512",
", 	c #369A06",
"' 	c #499A1B",
") 	c #3E960A",
"! 	c #3E920A",
"~ 	c #3A920E",
"{ 	c #3A9212",
"] 	c #3A9606",
"^ 	c #B2F880",
"/ 	c #BEFA8C",
"( 	c #C2F691",
"_ 	c #BEF58D",
": 	c #B8F284",
"< 	c #B7EE84",
"[ 	c #85C652",
"} 	c #B6EA83",
"| 	c #7ECA4A",
"1 	c #8BD259",
"2 	c #C6F693",
"3 	c #A5E672",
"4 	c #84CA52",
"5 	c #428E0F",
"6 	c #3E9216",
"7 	c #72A359",
"8 	c #C6F2AA",
"9 	c #DAFEC8",
"0 	c #82C15E",
"a 	c #BAFA86",
"b 	c #C6F296",
"c 	c #CAF296",
"d 	c #B0ED7D",
"e 	c #61B334",
"f 	c #6EB13F",
"g 	c #AAF67A",
"h 	c #3E8E16",
"i 	c #CEF29A",
"j 	c #5AAA26",
"k 	c #AAE277",
"l 	c #CAF29A",
"m 	c #5AA236",
"n 	c #C2EEAA",
"o 	c #EAFED5",
"p 	c #EEFEDA",
"q 	c #D7FEBD",
"r 	c #4A9321",
"s 	c #509E1D",
"t 	c #C2EE8E",
"u 	c #BAFC98",
"v 	c #79C949",
"w 	c #86D652",
"x 	c #ADE67B",
"y 	c #9BDF68",
"z 	c #66A943",
"A 	c #DEFDCA",
"B 	c #EEFEDF",
"C 	c #9ED683",
"D 	c #51992C",
"E 	c #36960A",
"F 	c #7EBA4E",
"G 	c #6AAE3E",
"H 	c #82C24E",
"I 	c #AAEB79",
"J 	c #8BC759",
"K 	c #66AC33",
"L 	c #519A1E",
"M 	c #49A11C",
"N 	c #579E2C",
"O 	c #76B646",
"P 	c #A4E071",
"Q 	c #7ABA46",
"R 	c #488D18",
"S 	c #76B642",
"T 	c #559A34",
"U 	c #4A862C",
"V 	c #E2FECA",
"W 	c #F6FEEA",
"X 	c #F2FEE2",
"Y 	c #92C678",
"Z 	c #7EC24A",
"` 	c #4FA323",
" .	c #76BE50",
"..	c #3A960A",
"+.	c #629F41",
"@.	c #BEEAAA",
"#.	c #EAFEDA",
"$.	c #F2FEE6",
"%.	c #F2FEDE",
"&.	c #DEF2CA",
"*.	c #F6FEE6",
"=.	c #B7E2A2",
"-.	c #58A227",
";.	c #77C145",
">.	c #B2E682",
",.	c #92D662",
"'.	c #B8EB9B",
").	c #E0FAD5",
"!.	c #F6FEEE",
"~.	c #FAFEEE",
"{.	c #F9FEF2",
"].	c #8AB272",
"^.	c #8BCA63",
"/.	c #9FD46C",
"(.	c #9CDB6E",
"_.	c #A2DA6E",
":.	c #6ABE36",
"<.	c #AADE8A",
"[.	c #72BE4C",
"}.	c #84D055",
"|.	c #50902E",
"1.	c #CFF6BA",
"2.	c #DEFCCE",
"3.	c #C6E6AA",
"4.	c #B0D190",
"5.	c #A3CB83",
"6.	c #C6E2AA",
"7.	c #E6F6D2",
"8.	c #CAE6B2",
"9.	c #96CA66",
"0.	c #5EAE2B",
"a.	c #A2C283",
"b.	c #A3C681",
"c.	c #ACBE9C",
"d.	c #FEFEFA",
"e.	c #F2FEEA",
"f.	c #CAFAB2",
"g.	c #428E1E",
"h.	c #98DA64",
"i.	c #3A8E12",
"j.	c #BEDEAC",
"k.	c #BED9A6",
"l.	c #EAFDDE",
"m.	c #CADAB6",
"n.	c #B0C5A3",
"o.	c #FCFEF6",
"p.	c #8EC25A",
"q.	c #8AC256",
"r.	c #72B242",
"s.	c #DAF2BE",
"t.	c #FEFEFE",
"u.	c #B5E199",
"v.	c #468A25",
"w.	c #A6CE90",
"x.	c #CEE2BA",
"y.	c #469224",
"z.	c #CAEEB9",
"A.	c #D6E2CA",
"B.	c #5EA22E",
"C.	c #81B268",
"D.	c #D6F6C2",
"E.	c #EEF6E6",
"F.	c #BACAAA",
"G.	c #E2F2CE",
"H.	c #CAFEAE",
"I.	c #DEFEC2",
"J.	c #80BA56",
"K.	c #C9DEB6",
"L.	c #D1FEB7",
"M.	c #428A22",
"N.	c #71C348",
"O.	c #B2ED82",
"P.	c #CFE9C0",
"Q.	c #AEC992",
"R.	c #E2FEC5",
"S.	c #AACA88",
"T.	c #BFDAB0",
"U.	c #8DC672",
"V.	c #91C27B",
"W.	c #9DC67C",
"X.	c #A6C68D",
"Y.	c #6BA650",
"Z.	c #B2D690",
"`.	c #8BCB6B",
" +	c #B9DA99",
".+	c #3E9211",
"++	c #B2E697",
"@+	c #99D57C",
"#+	c #3A960E",
"$+	c #C2F4A6",
"%+	c #D8EAC8",
"&+	c #AAE28E",
"*+	c #DAEECE",
"=+	c #E6FED2",
"-+	c #CEEEBC",
";+	c #A2D28A",
">+	c #DEF6CA",
",+	c #7EB65E",
"'+	c #E6F6DA",
")+	c #C4EEAE",
"!+	c #7ABA5A",
"~+	c #579639",
"{+	c #96CE7A",
"]+	c #D8F6BE",
"^+	c #C0FBA2",
"/+	c #C2F6AA",
". + + + + + + + + + + + + + + + + + + + + + + + + + + + + + + + + + + + + + + + + + + + + + + + @ + @ + + + + + + + + + @ @ + + + + + + + + + + + + + + + + + + + + + + + + + + + + + + + + + + + + + + + + + + + + ",
"# + + + $ + + + % % % % % % % % % % % % + + + + + + + + + + + + % % % % % % % @ + + % % @ % % $ $ % % @ % % % % + + + + $ $ % % % % % % @ % % % + + + + + + + + + + + + + + + + + + + + + + $ + + + % % + + + + + + ",
"& $ $ + $ $ $ + % * = = = = = = = = = - ; ; % % $ $ $ % % % ; = = = = = = = > = , @ % , * = ' = = = > = = = ) ! % $ $ + + + * = = = = > = = = - ; % % $ $ $ $ $ $ + + + $ + $ + + $ $ $ $ + % ; ~ { = { % $ $ $ $ $ ",
"# + + + + + + % ] ^ / ( ( _ ( ( ( ( : < [ ' ; $ @ + + $ ; = [ } : _ _ ( ( ( _ _ | ; ; 1 _ ( ( 2 ( ( ( ( ( : : 1 ' ] + + + ; 3 _ / _ ( / ( ( _ < 4 5 % + + + + + + + + $ + $ + $ $ + + + + % ; 6 7 8 9 0 ; + + + + + ",
". + + + + + + ] ! a b c c c c b c c c b ( d e ; % @ @ ] f g ( b c c b b b 2 2 _ | ! h 1 / b b c b b b c c c i b g j ] + + ; k b l c c c c c c 2 _ e ) + + + + + $ + + + + + + @ @ @ @ @ % { m n o p q 0 ; + + + + + ",
"# + $ $ + + + $ 5 _ b c c b ( ( ( 2 b c c ( < r ] $ ; s : l t b ( ( _ / _ ( _ u v ] ] w a _ _ _ _ _ _ ( 2 c t c c d ; $ + ] k c c b } x x ( c c 2 y ; + + + + + + $ + + + + + $ $ $ $ % ~ z A B o C D E + + + + + + ",
"& + + + $ $ $ % ! a b c b F G f G H k 2 c b 2 I ) % ! I b i c _ J K L L L L L s @ ] % M s L s L s L L N O k c c c ( j % $ ; P c l b Q R & S b i c } ; $ $ $ $ + + + $ % ~ h L T m m T D U V W X Y & ; % $ $ $ $ $ $ ",
"# + + $ + + + % 5 _ b b 2 N ! % ; ! 5 Z 2 c c _ ` ] N / b b b K 5 ; ] % % % ] % % $ $ % % % ; % ; % ] ] ) r ( l c 2 4 ; % ) k c c 2  .! ) s b t c I ; + + + + + + % ..# +.@.#.B $.X %.%.&.*.*.=.& % + + + + + + + + ",
"# + + + + + + % ! a b b / -.] + + + $ ! } c i b ;.! S ( c b t R h ; ! ; ! ; ! ] % @ $ @ ] ] ; ] ! ; ! ; ) 5 >.i c ( ,.; $ ! k c c b ;.; % M _ b 2 d ; + + + $ @ $ { D '.).$.!.~.~.~.~.{.{.{.~.].. % $ + + + + + + + ",
"& $ + + + + + ] 5 a c b ( -.; + $ + % ! >.c c 2 ,.5 ^.2 c c b /.(.(.(._.(.(.(.y :.; @ % s  .1 _.P k <.P k <.t c l b ,.! ] ..P c t 2 [.; % * }.}.}.v % + + + + E ) |.1.X %.2.3.4.5.5.4.6.7.{.{.8.|.~ , $ + + + + + + ",
"# + $ $ $ + + ] 5 a 2 b ( -.% + $ + @ ; k t i c y R 9.b c c i c c 2 ( 2 c b b _ v ; ; 0.< 2 b 2 b 2 c c c c i i c b ,.! % ! <.i i 2 ;.; $ $ ; ; ; % $ $ $ + + ~ D q X *.8.a.a.b.5.5.a.a.c.$.d.e.f.g...$ $ $ $ $ $ $ ",
". $ + + + $ + % 5 _ c b / -.] + + + % ! k i t ( h.R /.b c c b b ( ( 2 ( ( ( ( / | ! > : ( b c b ( ( _ _ _ 2 t c c b 1 i.] ) k b i 2  .] @ + @ $ $ + + + + $ % h 5.X *.j.a.a.k.l.*.*.B m.n.e.o.d.W Y { + + + + + + + ",
". + + + + $ + % ! _ b b / -.; + + + % > } c i 2 ,.5 J b c c t p.q.H [ [ [ [ [ 4 0.! K _ b c b /.r.K K K K z >.i i c ,.5 $ ] k b i ( ;.; % + + + $ $ + + + % ~ z #.W s.a.b.2.*.o.d.d.{.{.!.{.t.d.d.p m % @ + + + + + ",
"# + + + + + + ] 5 a 2 b / -.% + + + ] L _ i i 2 :.5 f ( t c < R 5 ] ; % % % % % % ! H ( c b : > ! % ; % ; 5 u.c c 2 1 ! ] ! P i t b [.% + + $ + + + + + @ ~ v.@.W *.w.a.x.~.{.d.d.t.t.t.t.t.t.t.d.B 0 ~ $ + + + + + ",
"& $ $ + + $ + ] 5 _ b b ( N 5 ; ; ! L 3 b c c ( ` ; L / c l b S ! ] ; ; ; ; ] ] % ; 1 b c c < R ! ] ] ] ] 5 >.c 3.2 ,.h % ! P i i 2 ;.; $ + $ + @ % ; i.y.+.z.X {.A.a.4.*.d.d.t.t.t.t.t.t.t.t.t.t.!.'.. % $ $ $ $ $ ",
"# + + $ + + + % ! a c t b 9.q.[ [ h._ b i t b P ; % ; 3 b c c 2 /.H K K K K K 0.` ; Q 2 t c b q.N j -.-.B.B.>.c i 2 1 ! ] ) k c i 2  .] @ + + % % . R C.D.$.!.{.{.E.F.G.d.d.t.t.t.t.t.t.t.t.t.t.t.{.H.& ; + + + + + ",
"# + + $ + $ + ] ! a 2 c c b b 2 b c c c c 2 d > % @ % - < ( b 2 b 2 2 ( / ( ( u v ; L _ b c c 2 ( ( ( _ _ ( b c i 2 ,.! % ! P c t 2 [.; + @ % i.y.C I.p *.{.d.t.d.{.{.{.d.t.t.t.t.t.t.t.t.t.t.t.t.!.q g...+ + + + + ",
". + + + + + $ % 5 a c i t b b b c b c b ( I -.; % $ @ ] ` 3 / c c c b 2 b b b _ | ! ! }./ b c c b 2 b 2 b c c i c c 1 ! % ] k c i ( ;.% $ ; . J.9 X %.%.D.k.K.~.d.t.d.d.t.t.t.t.t.t.t.t.t.t.t.t.t.!.L.M.; + + + + + ",
"& + + $ + + $ ] 5 _ b i c } } } } } x _.Q = % + + $ $ % ] > f h.x } } } } } < d N.; ] ! [.P } } } d } < } } } } } O.w ! % ; y d } d :.; % # 9.#.$.$.P.Q.a.a.n.$.d.t.t.t.t.t.t.t.t.t.t.t.t.t.t.t.t.e.'.# ; $ $ $ $ $ ",
"# $ + + + + + % 5 a b c ( +.5 ; ; ; ! ] % % + + + + + + @ % % ; ; ; ! ! ; ; ; ] ] + @ % ; ] ; ; ; ! ; ; ; ; ; ; ; ..] % % @ ] ! ] % ] ..g.C B $.R.S.a.b.Q.T.l.o.t.t.t.t.t.t.t.t.t.t.t.t.t.t.t.t.t.W U.~ + + + + + + ",
". $ + $ + + + % ! a b b / -.] + + + $ + + + $ + + + + $ + + + + + + + + + + + + % $ + + $ + + $ + + + + + + + + $ $ + + $ + + $ + $ % . V.p ~.G.b.W.5.s.*.o.o.t.t.t.t.t.t.t.t.t.t.t.t.t.t.t.t.t.{.B N ..+ + + + + + ",
"# + + + $ + $ ] 5 a b b _ -.% + + + + + + $ + + $ + $ + + + + + + + + + + $ @ + + + $ + + $ + + $ + $ + + + $ $ + + + + + $ + + + % ~ G V *.2.X.a.k.%.~.~.d.t.t.t.t.t.t.t.t.t.t.t.t.t.t.t.t.t.d.e.5.# $ $ + + + + + ",
"# $ + + $ + + ] 5 a b b / -.; + $ + $ $ + + $ + $ + + + $ + $ + $ $ + + + $ $ + + + + + + + + + $ + $ + + + + + + + $ + + $ + $ + ] & 8 *.%.b.a.k.*.{.t.t.t.t.t.t.t.t.t.t.t.t.t.t.t.t.t.t.t.t.{.A |.~ + $ $ $ $ $ $ ",
". + + + + + + % h a 2 2 ( -.% $ + + + + + + @ + + + + + + + + $ + + $ $ + + + + + + $ + + + + + + + + $ $ + + + % $ + + + + + + + { Y.B %.k.a.Z.*.d.d.t.t.t.t.t.t.t.t.t.t.t.t.t.t.t.t.t.t.t.t.W `.~ , + + + + + + + ",
". $ + + + $ $ % ! g : ^ ^ ` % + $ + + + $ + % @ + + + + $ + + + + + + + + + $ $ + + $ + + + + + + + + + + + + + @ + $ + + + + + + > 9 *.V a.a.o ~.t.t.t.t.t.t.t.t.t.t.t.t.t.t.t.t.t.t.t.t.t.t.B r E % + + + + + + + ",
"# + $ + $ + + @ % ; ; 5 ; ] @ + + + + + + $ + $ $ $ $ + + + + + + + + $ + + + + + + + + $ + + $ + + + + + + + + $ $ + $ + + + + E D B W  +a.K.~.d.t.t.t.t.t.t.t.t.t.t.t.t.t.t.t.t.t.t.t.t.t.t.l.R % + + + + + + + + ",
"# + $ + + + $ $ + + + + + + $ + $ $ $ + + + + + + + + + $ + $ $ + + + $ $ + + $ + + $ + + $ + $ $ + + + + $ + + + + + + + + $ % .+0 $.*.5.b.o d.t.t.t.t.t.t.t.t.t.t.t.t.t.t.t.t.t.t.t.t.t.t.t.!.G E $ + $ $ $ $ $ $ ",
". + + + + $ + + + $ + + + + + + + + + + + + + + + + $ + + $ + + $ $ + + + + + + + + + + $ + + + + $ $ + $ @ + + + + + $ $ + + % h ++*.&.a.5.W d.t.t.t.t.t.t.t.t.t.t.t.t.t.t.t.t.t.t.t.t.t.t.t.!.@+.+, $ + + + + + + ",
". + + $ + + + + + + $ + + + + + + + $ + $ + + + + + $ + + + + + + + + + $ $ + + + + + + + + + + + + $ + $ $ + + $ + + + + + + E & L.*.8.W.Z.W t.t.t.t.t.t.t.t.t.t.t.t.t.t.t.t.t.t.t.t.t.t.t.t.W ++. % + + + + + + + ",
"& + $ + + $ + $ + + + $ $ + $ + $ + + $ + $ $ $ $ + + + + + + + + $ + + + + + $ $ + $ + + $ + + + + + + + + $ $ + $ + + $ + $ ~ v.V %.K.a. +~.t.t.t.t.t.t.t.t.t.t.t.t.t.t.t.t.t.t.t.t.t.t.t.t.!.L.& ..+ + + + + + + ",
"& + + + @ $ + + + + + + + + $ + $ + + + + + + + + + $ + + + + + + $ $ + + $ + + $ + + $ + $ $ + + + + + + + + + + + + + $ + + #+v.A *.K.W. +{.t.t.t.t.t.t.t.t.t.t.t.t.t.t.t.t.t.t.t.t.t.t.t.t.!.L.g.; $ $ $ $ $ $ $ ",
"# + + $ + + + + $ + + + + + + + + + + + + + + + $ + + + + $ $ $ + + + + + + + + + + $ + + + + $ $ + + + $ + + + + $ $ + + + + ; v.I.%.x.W. +~.t.t.t.t.t.t.t.t.t.t.t.t.t.t.t.t.t.t.t.t.t.t.t.t.!.$+& E + + + + + + + ",
"# $ + + + + $ + $ + + $ + + + + $ + $ + + + + + $ + $ $ + + + + + + $ $ + + + + + + + + + + + + + $ + + + + $ + + + + + + $ + ; . f.%.%+W.w.~.d.t.t.t.t.t.t.t.t.t.t.t.t.t.t.t.t.t.t.t.t.t.t.t.!.&+h % + + + + + + + ",
"& + + + + $ + + + $ $ + + + $ + + $ + $ $ $ $ + + + + + + + + $ + + + + + $ $ + $ + + $ + + + + $ + $ + $ $ + $ + + $ + $ + + + ~ @+X %.b.b.X t.t.t.t.t.t.t.t.t.t.t.t.t.t.t.t.t.t.t.t.t.t.t.t.$.0 ..% + + + + + + + ",
"# + $ $ + + + + + + + $ $ + $ + + + + + + + + + $ + + + + + + $ $ + + $ + + $ + + $ + $ $ + + + + + + + + + + + + + $ + % $ + % ; B.B W Z.W.*+~.t.t.t.t.t.t.t.t.t.t.t.t.t.t.t.t.t.t.t.t.t.t.d.#.D % % $ $ $ $ $ $ $ ",
". $ + + + + $ + + + + + + + + + + + + + + + $ + + + + $ $ $ + + + + + + + + + + $ + + + + $ $ + + + $ + + + + $ $ + + + + + $ + + D =+*.-+a.X.*.d.t.t.t.t.t.t.t.t.t.t.t.t.t.t.t.t.t.t.t.t.d.{.-+. @ + + + + + + + + ",
". + + + $ + $ + + $ + + + + $ + $ + + + + + $ + $ $ + + + + + + $ $ + + + + + + + + + + + + + $ + + + + $ $ @ + + + $ + + @ $ $ $ .+;+*.o X.a.8.~.d.t.t.t.t.t.t.t.t.t.t.t.t.t.t.t.t.t.t.t.d.X V..++ + + + + + + + + ",
"# + + $ + + + $ $ + + + $ + + $ + $ $ $ $ + + + + + + + + $ + + + + + $ $ + $ + + $ + + + + $ + $ + $ $ + + $ + $ + + + $ + + + + ~ |.I.*.7.b.W.>+~.d.t.t.t.t.t.t.t.t.t.t.t.t.t.t.t.t.t.t.!.q g.; $ + + + + + + + $ ",
"& $ + + + + + + + $ $ + $ + + + + + + + + + $ + + + + + + $ $ + + $ + + $ + + $ + $ $ + + + + + + + + + + + $ + $ + $ + + + + + + $ 6 @+B *.6.a.X.>+~.d.t.t.t.t.t.t.t.t.t.t.t.t.t.t.t.t.{.B ,+~ + + $ $ $ $ $ $ + + ",
"# + + + $ + + + + + + + + + + + + + + + $ + + + + $ $ $ + + + + + + + + + + $ + + + + $ $ + + + $ + + + + + + + + + + + + + + $ + $ $ R @.X *.k.a.a.6.%.d.t.t.t.t.t.t.t.t.t.t.t.t.t.t.d.W u.6 % % + + + + + + + + + ",
". + $ + $ + + $ + + + + $ + $ + + + + + $ + $ $ + + + + + + $ $ + + + + + + + + + + + + + $ + + + + $ $ + + + + $ + + + + + + + + $ + .+T q X *.3.b.a.T.d.t.t.t.t.t.t.t.t.t.t.t.t.t.{.e.1.|.#++ + + + + + + + + + + ",
"# $ + + + $ $ + + + $ + + $ + $ $ $ $ + + + + + + + + $ + + + + + $ $ + $ + + $ + + + + $ + $ + $ $ + + $ + $ + + + $ $ + $ + $ % @ + $ .+D I.X W '+n.%+d.t.t.t.t.t.t.t.t.t.t.t.t.d.e.1.& ; $ $ + + + + + + + $ $ + ",
". + + + + + + $ $ + $ + + + + + + + + + $ + + + + + + $ $ + + $ + + $ + + $ + $ $ + + + + + + + + + + + $ + $ + $ + + $ + + + + $ % $ $ $ ~ |.)+$.!.~.!.d.t.t.t.t.t.t.t.t.t.d.d.!.X u.r { + + + + + + + $ $ + + + + ",
"# + $ + + + + + + + + + + + + + + + $ + + + + $ $ $ + + + + + + + + + + $ + + + + $ $ + + + $ + + + + + + + + + + + + + + $ + + + + + + + % .+r 0 R.X ~.d.t.t.t.t.t.t.t.d.d.{.X q !+. ~ + $ + $ $ $ + + + + + + $ $ ",
"& + $ + + $ + + + + $ + $ + + + + + $ + $ $ + + + + + + $ $ + + + + + + + + + + + + + $ + + + + $ $ + + + + $ + + + + + + + $ + + + + + + + $ ..6 ~+{+]+B W !.~.~.~.~.!.$.#.1.Y |.~ % % + + + + + + + + + + + + + + ",
"# + + $ $ + + + $ + + $ + $ $ $ $ + + + + + + + + $ + + + + + $ $ + $ + + $ + + + + $ + $ + $ $ + + $ + $ + + + $ $ + $ + $ + $ + + + + + + + + % ; h g.B.@+&+^+/+/+/+&+{+T . i.E % % + + $ + + + $ $ + + $ $ + + + "};
