/* XPM */
static char * stock_delete_outline_16_xpm[] = {
"16 16 41 1",
" 	c None",
".	c #A8A8A8",
"+	c #BBBBBB",
"@	c #BEBEBE",
"#	c #B9B9B9",
"$	c #B3B3B3",
"%	c #A3A3A3",
"&	c #D3D2CC",
"*	c #C1C1BC",
"=	c #A9A9A9",
"-	c #DEDED5",
";	c #D5D5CE",
">	c #C3C2BE",
",	c #CDCCC7",
"'	c #BCBBB7",
")	c #B3B2B0",
"!	c #AEAEAD",
"~	c #B6B6B5",
"{	c #BEBEBC",
"]	c #C9C9C7",
"^	c #B7B7B5",
"/	c #ACABAB",
"(	c #ADADAB",
"_	c #B3B3B0",
":	c #DDDDD9",
"<	c #BFBFBB",
"[	c #B3B3B1",
"}	c #B4B4B3",
"|	c #A9A9A8",
"1	c #A7A7A7",
"2	c #B1B1AE",
"3	c #B1B1AF",
"4	c #D1D1CE",
"5	c #BCBCB7",
"6	c #B2B2B0",
"7	c #B1B1B0",
"8	c #BCBCB9",
"9	c #B0B0AE",
"0	c #A5A5A5",
"a	c #BBBBB8",
"b	c #B6B6B3",
"     .+@#$%     ",
"   %%&    *%%   ",
"  =         -%  ",
" $            % ",
" %            % ",
" %;          >% ",
" %*,        ')% ",
"  !~{]    ^/(!  ",
"  _:<^[}|1|  2  ",
"  [          3  ",
"  [          _  ",
"  [          _  ",
"  [4        56  ",
"  78        69  ",
"   00a    b}%   ",
"     0%=0%%     "};
